# File created by Blade
# Date/Time:  Wed Jan 21 18:40:15 2015
#---------------------------------------------------------
:version 1.10
:name HOM
:units
  mass 1.0
  length 1.000000
  angle deg
:documentation
     Acclaim Skeleton File
:root
   axis xyz
   order TX TY TZ RX RY RZ
   position 0.000000 0.000000 0.000000
   orientation 0 0 0
:bonedata
   begin
      id 1
      name RightUpLeg_dum
      direction -1.000000 0.000000 0.000000
      length 3.693983
      axis 0.0 0.0 0.0 xyz
   end
   begin
      id 2
      name LeftUpLeg_dum
      direction 1.000000 0.000000 0.000000
      length 3.693983
      axis 0.0 0.0 0.0 xyz
   end
   begin
      id 3
      name Spine_dum
      direction 0.000000 1.000000 0.000000
      length 2.392956
      axis 0.0 0.0 0.0 xyz
   end
   begin
      id 4
      name RightUpLeg
      direction 0.000000 -1.000000 0.000000
      length 15.795667
      axis 0.0 0.0 0.0 xyz
      dof rx ry rz
   end
   begin
      id 5
      name RightLeg
      direction 0.000000 -1.000000 0.000000
      length 14.766989
      axis 0.0 0.0 0.0 xyz
      dof rx ry rz
   end
   begin
      id 6
      name RightFoot
      direction 0.000000 -0.258819 0.965926
      length 4.962790
      axis 15.0 0.0 0.0 xyz
      dof rx ry rz
   end
   begin
      id 7
      name RightToeBase
      direction 0.000000 0.000000 1.000000
      length 2.952750
      axis 0.0 0.0 0.0 xyz
      dof rx ry rz
   end
   begin
      id 8
      name LeftUpLeg
      direction 0.000000 -1.000000 0.000000
      length 15.795667
      axis 0.0 0.0 0.0 xyz
      dof rx ry rz
   end
   begin
      id 9
      name LeftLeg
      direction 0.000000 -1.000000 0.000000
      length 14.766989
      axis 0.0 0.0 0.0 xyz
      dof rx ry rz
   end
   begin
      id 10
      name LeftFoot
      direction 0.000000 -0.258819 0.965926
      length 4.962790
      axis 15.0 0.0 0.0 xyz
      dof rx ry rz
   end
   begin
      id 11
      name LeftToeBase
      direction 0.000000 0.000000 1.000000
      length 2.952750
      axis 0.0 0.0 0.0 xyz
      dof rx ry rz
   end
   begin
      id 12
      name Spine
      direction 0.000000 1.000000 0.000000
      length 0.000000
      axis 0.0 0.0 0.0 xyz
      dof rx ry rz
   end
   begin
      id 13
      name Spine_dum1
      direction 0.000000 1.000000 0.000000
      length 13.207411
      axis 0.0 0.0 0.0 xyz
   end
   begin
      id 14
      name Spine_dum2
      direction 0.000000 1.000000 0.000000
      length 13.207411
      axis 0.0 0.0 0.0 xyz
   end
   begin
      id 15
      name Spine_dum3
      direction 0.000000 1.000000 0.000000
      length 19.250100
      axis 0.0 0.0 0.0 xyz
   end
   begin
      id 16
      name RightShoulder
      direction -1.000000 0.000000 0.000000
      length 8.140465
      axis 0.0 0.0 90.0 xyz
      dof rx ry rz
   end
   begin
      id 17
      name RightArm
      direction -1.000000 0.000000 0.000000
      length 10.649840
      axis 0.0 0.0 90.0 xyz
      dof rx ry rz
   end
   begin
      id 18
      name RightForeArm
      direction -1.000000 0.000000 0.000000
      length 8.304624
      axis 0.0 0.0 90.0 xyz
      dof ry rz rx
   end
   begin
      id 19
      name RightHand
      direction -1.000000 0.000000 0.000000
      length 0.000000
      axis 0.0 0.0 90.0 xyz
      dof rx ry rz
   end
   begin
      id 20
      name RightHand_dum1
      direction -1.000000 0.000000 0.000000
      length 3.937000
      axis 0.0 0.0 90.0 xyz
   end
   begin
      id 21
      name RightHand_dum2
      direction 0.000000 0.000000 0.000000
      length 0.000000
      axis 0.0 0.0 90.0 xyz
   end
   begin
      id 22
      name RightHandThumb1
      direction 0.000000 0.000000 1.000000
      length 3.937000
      axis 0.0 0.0 90.0 xyz
      dof rx rz ry
   end
   begin
      id 23
      name LeftShoulder
      direction 1.000000 0.000000 0.000000
      length 8.140465
      axis 0.0 0.0 -90.0 xyz
      dof rx ry rz
   end
   begin
      id 24
      name LeftArm
      direction 1.000000 0.000000 0.000000
      length 10.649840
      axis 0.0 0.0 -90.0 xyz
      dof rx ry rz
   end
   begin
      id 25
      name LeftForeArm
      direction 1.000000 0.000000 0.000000
      length 8.304624
      axis 0.0 0.0 -90.0 xyz
      dof ry rz rx
   end
   begin
      id 26
      name LeftHand
      direction 1.000000 0.000000 0.000000
      length 0.000000
      axis 0.0 0.0 -90.0 xyz
      dof rx ry rz
   end
   begin
      id 27
      name LeftHand_dum1
      direction 1.000000 0.000000 0.000000
      length 3.937000
      axis 0.0 0.0 -90.0 xyz
   end
   begin
      id 28
      name LeftHand_dum2
      direction 0.000000 0.000000 0.000000
      length 0.000000
      axis 0.0 0.0 -90.0 xyz
   end
   begin
      id 29
      name LeftHandThumb1
      direction 0.000000 0.000000 1.000000
      length 3.937000
      axis 0.0 0.0 -90.0 xyz
      dof rx rz ry
   end
   begin
      id 30
      name Head
      direction 0.000000 1.000000 0.000000
      length 4.527550
      axis 0.0 0.0 0.0 xyz
      dof rx ry rz
   end
:hierarchy
   begin
      root RightUpLeg_dum LeftUpLeg_dum Spine_dum
      RightUpLeg_dum RightUpLeg
      LeftUpLeg_dum LeftUpLeg
      Spine_dum Spine
      RightUpLeg RightLeg
      RightLeg RightFoot
      RightFoot RightToeBase
      LeftUpLeg LeftLeg
      LeftLeg LeftFoot
      LeftFoot LeftToeBase
      Spine Spine_dum1 Spine_dum2 Spine_dum3
      Spine_dum1 RightShoulder
      Spine_dum2 LeftShoulder
      Spine_dum3 Head
      RightShoulder RightArm
      RightArm RightForeArm
      RightForeArm RightHand
      RightHand RightHand_dum1 RightHand_dum2
      RightHand_dum2 RightHandThumb1
      LeftShoulder LeftArm
      LeftArm LeftForeArm
      LeftForeArm LeftHand
      LeftHand LeftHand_dum1 LeftHand_dum2
      LeftHand_dum2 LeftHandThumb1
   end

# File created by Blade
# Date/Time:  Wed Jan 21 18:40:08 2015
# Frame Rate: 120.000 fps
#------------------------------------------------------
:FULLY-SPECIFIED
:DEGREES
139
root 1.629492 32.650189 -3.995712 40.776212 2.081277 0.239700
RightUpLeg -32.757881 -9.596829 7.152716
RightLeg -4.148224 -0.000000 0.000000
RightFoot -7.469556 4.372555 20.045236
RightToeBase 19.962074 -0.000000 -0.000000
LeftUpLeg -35.201118 1.772613 -2.425902
LeftLeg 1.354596 -0.000000 -0.000000
LeftFoot -9.774580 -6.293431 -6.624353
LeftToeBase 10.875883 -0.000000 -0.000000
Spine -43.010118 -1.496779 0.057236
RightShoulder -18.633289 15.382536 -46.807642
RightArm 3.026270 -13.596898 40.667462
RightForeArm 5.409496 -0.000000 -5.813465
RightHand 4.806269 -0.000000 10.344699
RightHandThumb1 -24.326973 -0.000000 -32.862282
LeftShoulder -11.739808 2.712540 42.083543
LeftArm 21.518487 -14.289276 -37.563614
LeftForeArm 19.760933 0.000000 -4.303210
LeftHand -25.468832 -0.000000 -3.505465
LeftHandThumb1 -26.253704 0.000000 33.147579
Head 10.911651 -4.184298 8.411022
140
root 1.634291 32.660062 -4.022013 40.944966 1.950256 0.069170
RightUpLeg -33.094632 -9.445697 7.267410
RightLeg -3.961881 -0.000000 0.000000
RightFoot -7.258798 4.491032 19.855944
RightToeBase 19.606830 -0.000000 -0.000000
LeftUpLeg -35.382356 1.721611 -2.176224
LeftLeg 1.304816 -0.000000 -0.000000
LeftFoot -9.747691 -6.208214 -6.811078
LeftToeBase 10.990256 -0.000000 -0.000000
Spine -43.098683 -1.409158 0.030912
RightShoulder -18.668350 15.424898 -46.739250
RightArm 3.031654 -13.627872 40.745924
RightForeArm 5.475390 -0.000000 -5.849648
RightHand 4.794853 -0.000000 10.261448
RightHandThumb1 -24.326973 -0.000000 -32.862282
LeftShoulder -11.745414 2.704310 42.155645
LeftArm 21.511623 -14.228877 -37.509289
LeftForeArm 19.653903 0.000000 -4.243152
LeftHand -25.484965 0.000000 -3.533738
LeftHandThumb1 -26.253704 0.000000 33.147579
Head 11.011700 -4.312991 8.655227
141
root 1.638289 32.670735 -4.049966 41.143931 1.788351 -0.093788
RightUpLeg -33.466613 -9.235259 7.326855
RightLeg -3.744261 -0.000000 0.000000
RightFoot -7.061786 4.612471 19.749034
RightToeBase 19.390933 -0.000000 -0.000000
LeftUpLeg -35.559915 1.634290 -1.898982
LeftLeg 1.194400 -0.000000 -0.000000
LeftFoot -9.678756 -6.111626 -7.051065
LeftToeBase 11.078924 -0.000000 -0.000000
Spine -43.214425 -1.291378 -0.053996
RightShoulder -18.716151 15.447418 -46.659284
RightArm 3.003306 -13.474117 40.816126
RightForeArm 5.430447 -0.000000 -5.853979
RightHand 4.829557 -0.000000 10.365301
RightHandThumb1 -24.326973 -0.000000 -32.862282
LeftShoulder -11.720001 2.667071 42.237213
LeftArm 21.519167 -14.214597 -37.447341
LeftForeArm 19.477369 -0.000000 -4.237981
LeftHand -25.395731 -0.000000 -3.669220
LeftHandThumb1 -26.253704 0.000000 33.147579
Head 11.109892 -4.489651 8.999275
142
root 1.638156 32.683303 -4.080706 41.353642 1.593975 -0.285159
RightUpLeg -33.830447 -8.835898 7.281046
RightLeg -3.544004 -0.000000 0.000000
RightFoot -6.889206 4.603932 19.677123
RightToeBase 19.047792 -0.000000 -0.000000
LeftUpLeg -35.745357 1.641096 -1.651216
LeftLeg 1.076102 -0.000000 -0.000000
LeftFoot -9.613920 -6.055962 -7.327554
LeftToeBase 11.165970 -0.000000 -0.000000
Spine -43.325554 -1.148681 -0.131710
RightShoulder -18.758732 15.531023 -46.596047
RightArm 2.919047 -13.410884 40.911416
RightForeArm 5.435881 -0.000000 -5.811642
RightHand 4.641228 -0.000000 10.223729
RightHandThumb1 -24.326973 -0.000000 -32.862282
LeftShoulder -11.729223 2.646595 42.337769
LeftArm 21.490477 -14.233681 -37.432991
LeftForeArm 19.418673 -0.000000 -4.124147
LeftHand -25.408215 0.000000 -3.714304
LeftHandThumb1 -26.253704 0.000000 33.147579
Head 11.187524 -4.682202 9.321165
143
root 1.636332 32.696555 -4.112319 41.570207 1.357842 -0.488089
RightUpLeg -34.223449 -8.376361 7.202798
RightLeg -3.300258 -0.000000 0.000000
RightFoot -6.745593 4.586223 19.724385
RightToeBase 18.755440 -0.000000 -0.000000
LeftUpLeg -35.929842 1.688747 -1.447180
LeftLeg 0.939540 -0.000000 -0.000000
LeftFoot -9.550862 -5.876577 -7.473501
LeftToeBase 11.211620 -0.000000 -0.000000
Spine -43.445434 -0.968449 -0.246956
RightShoulder -18.801751 15.546298 -46.503700
RightArm 2.894104 -13.333233 40.999523
RightForeArm 5.481975 -0.000000 -5.828682
RightHand 4.743590 -0.000000 10.287463
RightHandThumb1 -24.326973 -0.000000 -32.862282
LeftShoulder -11.717956 2.609152 42.444882
LeftArm 21.483325 -14.311709 -37.433087
LeftForeArm 19.453209 -0.000000 -4.058928
LeftHand -25.409070 -0.000000 -3.799608
LeftHandThumb1 -26.253704 0.000000 33.147579
Head 11.300170 -4.836588 9.682723
144
root 1.633820 32.711560 -4.142920 41.801908 1.094163 -0.710733
RightUpLeg -34.632355 -7.860731 7.075151
RightLeg -3.041787 -0.000000 0.000000
RightFoot -6.585653 4.586813 19.841401
RightToeBase 18.510440 -0.000000 -0.000000
LeftUpLeg -36.123016 1.788082 -1.252663
LeftLeg 0.807177 -0.000000 -0.000000
LeftFoot -9.488434 -5.720716 -7.617746
LeftToeBase 11.219774 -0.000000 -0.000000
Spine -43.585416 -0.765735 -0.355249
RightShoulder -18.839960 15.610645 -46.416846
RightArm 2.849530 -13.328819 41.084715
RightForeArm 5.519572 -0.000000 -5.848005
RightHand 4.812487 -0.000000 10.393141
RightHandThumb1 -24.326973 -0.000000 -32.862282
LeftShoulder -11.694830 2.571670 42.564190
LeftArm 21.419066 -14.398708 -37.450312
LeftForeArm 19.498872 -0.000000 -3.947162
LeftHand -25.395609 -0.000000 -3.846409
LeftHandThumb1 -26.253704 0.000000 33.147579
Head 11.398045 -5.044190 10.031186
145
root 1.628186 32.727682 -4.172758 42.021904 0.808797 -0.945894
RightUpLeg -35.018620 -7.313731 6.911719
RightLeg -2.819618 -0.000000 0.000000
RightFoot -6.353357 4.728162 20.142754
RightToeBase 18.231993 -0.000000 -0.000000
LeftUpLeg -36.306204 1.932875 -1.078440
LeftLeg 0.688572 -0.000000 -0.000000
LeftFoot -9.441975 -5.573690 -7.777720
LeftToeBase 11.276772 -0.000000 -0.000000
Spine -43.706990 -0.571236 -0.439852
RightShoulder -18.845624 15.666912 -46.348814
RightArm 2.788881 -13.178288 41.226166
RightForeArm 5.381026 -0.000000 -5.854012
RightHand 4.892993 -0.000000 10.226306
RightHandThumb1 -24.326973 -0.000000 -32.862282
LeftShoulder -11.716487 2.583870 42.639148
LeftArm 21.394219 -14.491132 -37.416615
LeftForeArm 19.512063 0.000000 -3.894436
LeftHand -25.370122 -0.000000 -3.896999
LeftHandThumb1 -26.253704 0.000000 33.147579
Head 11.498878 -5.230129 10.355542
146
root 1.625969 32.742646 -4.201904 42.204449 0.502327 -1.154751
RightUpLeg -35.374488 -6.832944 6.733949
RightLeg -2.586458 -0.000000 0.000000
RightFoot -6.106154 4.868542 20.251283
RightToeBase 17.806672 -0.000000 -0.000000
LeftUpLeg -36.444934 2.089995 -0.967515
LeftLeg 0.570388 -0.000000 -0.000000
LeftFoot -9.380672 -5.383537 -7.837674
LeftToeBase 11.243942 -0.000000 -0.000000
Spine -43.789226 -0.360783 -0.570920
RightShoulder -18.855302 15.697728 -46.236825
RightArm 2.778331 -13.088287 41.277562
RightForeArm 5.454633 -0.000000 -5.891620
RightHand 4.781376 -0.000000 10.334260
RightHandThumb1 -24.326973 -0.000000 -32.862282
LeftShoulder -11.729696 2.538635 42.742391
LeftArm 21.357343 -14.456020 -37.390526
LeftForeArm 19.521073 -0.000000 -3.879708
LeftHand -25.379924 -0.000000 -3.884234
LeftHandThumb1 -26.253704 0.000000 33.147579
Head 11.607230 -5.413500 10.701545
147
root 1.617843 32.758903 -4.230596 42.363383 0.189682 -1.394592
RightUpLeg -35.712894 -6.304568 6.511769
RightLeg -2.326285 -0.000000 0.000000
RightFoot -5.808939 5.214908 20.959065
RightToeBase 17.190064 -0.000000 -0.000000
LeftUpLeg -36.560241 2.326678 -0.863341
LeftLeg 0.457152 -0.000000 -0.000000
LeftFoot -9.396451 -5.246826 -8.059199
LeftToeBase 11.523667 -0.000000 -0.000000
Spine -43.845220 -0.136309 -0.690231
RightShoulder -18.871899 15.716545 -46.146764
RightArm 2.762344 -13.043966 41.385578
RightForeArm 5.444268 -0.000000 -5.918672
RightHand 4.794524 -0.000000 10.448365
RightHandThumb1 -24.326973 -0.000000 -32.862282
LeftShoulder -11.724196 2.475571 42.849324
LeftArm 21.274496 -14.346962 -37.325864
LeftForeArm 19.527972 -0.000000 -3.852547
LeftHand -25.338682 0.000000 -3.887649
LeftHandThumb1 -26.253704 0.000000 33.147579
Head 11.713252 -5.612521 11.037033
148
root 1.611746 32.775181 -4.258414 42.487602 -0.098414 -1.606195
RightUpLeg -35.973931 -5.757870 6.204936
RightLeg -2.128820 -0.000000 0.000000
RightFoot -5.585094 5.445354 21.375248
RightToeBase 16.590812 -0.000000 -0.000000
LeftUpLeg -36.671260 2.588366 -0.824106
LeftLeg 0.399928 -0.000000 -0.000000
LeftFoot -9.310489 -5.097811 -7.903576
LeftToeBase 11.257555 -0.000000 -0.000000
Spine -43.869071 0.059885 -0.789264
RightShoulder -18.863907 15.749793 -46.100878
RightArm 2.719461 -13.060867 41.524192
RightForeArm 5.473850 -0.000000 -5.947091
RightHand 4.734181 -0.000000 10.398623
RightHandThumb1 -24.326973 -0.000000 -32.862282
LeftShoulder -11.720153 2.393818 42.902338
LeftArm 21.231851 -14.236999 -37.223032
LeftForeArm 19.493478 0.000000 -3.966803
LeftHand -25.333108 -0.000000 -3.841276
LeftHandThumb1 -26.253704 0.000000 33.147579
Head 11.848962 -5.813731 11.328051
